<mxfile host="app.diagrams.net" modified="2023-06-27T06:58:50.546Z" agent="Mozilla/5.0 (X11; Linux x86_64) AppleWebKit/537.36 (KHTML, like Gecko) Chrome/112.0.0.0 Safari/537.36" version="21.5.1" etag="my3XvOZNtowFegoUFF-u" type="github">
  <diagram name="Page-1" id="LwU_bVEaTcYrUMofRP5s">
    <mxGraphModel>
      <root>
        <mxCell id="0" />
        <mxCell id="1" parent="0" />
      </root>
    </mxGraphModel>
  </diagram>
</mxfile>
